<mxfile host="app.diagrams.net" agent="Mozilla/5.0 (X11; Linux x86_64) AppleWebKit/537.36 (KHTML, like Gecko) Chrome/132.0.0.0 Safari/537.36 OPR/117.0.0.0" version="26.1.0">
  <diagram name="Page-1" id="7m_tYDYUOvT7Dx6S9NxC">
    <mxGraphModel dx="2466" dy="972" grid="1" gridSize="10" guides="1" tooltips="1" connect="1" arrows="1" fold="1" page="1" pageScale="1" pageWidth="850" pageHeight="1100" math="0" shadow="0">
      <root>
        <mxCell id="0" />
        <mxCell id="1" parent="0" />
        <mxCell id="Z9UdBZsw_tjtDqDn9rrF-33" style="edgeStyle=orthogonalEdgeStyle;rounded=0;orthogonalLoop=1;jettySize=auto;html=1;exitX=1;exitY=0.5;exitDx=0;exitDy=0;entryX=0.5;entryY=0;entryDx=0;entryDy=0;startArrow=classic;startFill=1;" parent="1" source="Z9UdBZsw_tjtDqDn9rrF-14" target="Z9UdBZsw_tjtDqDn9rrF-22" edge="1">
          <mxGeometry relative="1" as="geometry" />
        </mxCell>
        <mxCell id="eCH8moJzU2hQu0W35KAI-6" style="edgeStyle=orthogonalEdgeStyle;rounded=0;orthogonalLoop=1;jettySize=auto;html=1;exitX=0;exitY=0.5;exitDx=0;exitDy=0;" parent="1" source="Z9UdBZsw_tjtDqDn9rrF-14" target="eCH8moJzU2hQu0W35KAI-1" edge="1">
          <mxGeometry relative="1" as="geometry" />
        </mxCell>
        <mxCell id="Z9UdBZsw_tjtDqDn9rrF-14" value="SteeringInformationPublisher" style="rounded=0;whiteSpace=wrap;html=1;direction=east;flipH=1;flipV=0;" parent="1" vertex="1">
          <mxGeometry x="960" y="360" width="200" height="80" as="geometry" />
        </mxCell>
        <mxCell id="Z9UdBZsw_tjtDqDn9rrF-22" value="DrivingProgram" style="rounded=0;whiteSpace=wrap;html=1;" parent="1" vertex="1">
          <mxGeometry x="1320" y="480" width="190" height="80" as="geometry" />
        </mxCell>
        <mxCell id="Z9UdBZsw_tjtDqDn9rrF-24" style="edgeStyle=orthogonalEdgeStyle;rounded=0;orthogonalLoop=1;jettySize=auto;html=1;exitX=0;exitY=0.5;exitDx=0;exitDy=0;entryX=1;entryY=0.5;entryDx=0;entryDy=0;startArrow=classic;startFill=1;" parent="1" source="Z9UdBZsw_tjtDqDn9rrF-23" target="Z9UdBZsw_tjtDqDn9rrF-22" edge="1">
          <mxGeometry relative="1" as="geometry" />
        </mxCell>
        <mxCell id="Z9UdBZsw_tjtDqDn9rrF-26" style="edgeStyle=orthogonalEdgeStyle;rounded=0;orthogonalLoop=1;jettySize=auto;html=1;exitX=1;exitY=0.5;exitDx=0;exitDy=0;entryX=0;entryY=0.5;entryDx=0;entryDy=0;startArrow=classic;startFill=1;" parent="1" source="Z9UdBZsw_tjtDqDn9rrF-23" target="Z9UdBZsw_tjtDqDn9rrF-25" edge="1">
          <mxGeometry relative="1" as="geometry" />
        </mxCell>
        <mxCell id="Z9UdBZsw_tjtDqDn9rrF-23" value="ECU" style="rounded=0;whiteSpace=wrap;html=1;" parent="1" vertex="1">
          <mxGeometry x="1595" y="480" width="190" height="80" as="geometry" />
        </mxCell>
        <mxCell id="Z9UdBZsw_tjtDqDn9rrF-25" value="I/O Wheel and Pedals" style="rounded=0;whiteSpace=wrap;html=1;" parent="1" vertex="1">
          <mxGeometry x="1880" y="480" width="190" height="80" as="geometry" />
        </mxCell>
        <mxCell id="Z9UdBZsw_tjtDqDn9rrF-32" style="edgeStyle=orthogonalEdgeStyle;rounded=0;orthogonalLoop=1;jettySize=auto;html=1;exitX=1;exitY=0.5;exitDx=0;exitDy=0;entryX=0.5;entryY=1;entryDx=0;entryDy=0;startArrow=classic;startFill=1;" parent="1" source="Z9UdBZsw_tjtDqDn9rrF-16" target="Z9UdBZsw_tjtDqDn9rrF-22" edge="1">
          <mxGeometry relative="1" as="geometry" />
        </mxCell>
        <mxCell id="eCH8moJzU2hQu0W35KAI-8" style="edgeStyle=orthogonalEdgeStyle;rounded=0;orthogonalLoop=1;jettySize=auto;html=1;entryX=1;entryY=0.5;entryDx=0;entryDy=0;" parent="1" source="Z9UdBZsw_tjtDqDn9rrF-16" target="eCH8moJzU2hQu0W35KAI-2" edge="1">
          <mxGeometry relative="1" as="geometry" />
        </mxCell>
        <mxCell id="Z9UdBZsw_tjtDqDn9rrF-34" value="" style="swimlane;startSize=0;" parent="1" vertex="1">
          <mxGeometry x="-360" y="200" width="800" height="560" as="geometry">
            <mxRectangle x="-360" y="120" width="50" height="40" as="alternateBounds" />
          </mxGeometry>
        </mxCell>
        <mxCell id="Z9UdBZsw_tjtDqDn9rrF-45" value="&lt;font style=&quot;font-size: 20px;&quot;&gt;Docker Image&lt;/font&gt;" style="text;html=1;align=center;verticalAlign=middle;resizable=0;points=[];autosize=1;strokeColor=none;fillColor=none;" parent="Z9UdBZsw_tjtDqDn9rrF-34" vertex="1">
          <mxGeometry x="25" y="20" width="150" height="40" as="geometry" />
        </mxCell>
        <mxCell id="Z9UdBZsw_tjtDqDn9rrF-35" value="TORCS" style="rounded=0;whiteSpace=wrap;html=1;" parent="1" vertex="1">
          <mxGeometry x="-320" y="480" width="120" height="80" as="geometry" />
        </mxCell>
        <mxCell id="Z9UdBZsw_tjtDqDn9rrF-36" value="AOS_HWLOOP_BOT" style="rounded=0;whiteSpace=wrap;html=1;" parent="1" vertex="1">
          <mxGeometry x="-80" y="480" width="160" height="80" as="geometry" />
        </mxCell>
        <mxCell id="Z9UdBZsw_tjtDqDn9rrF-37" value="" style="endArrow=classic;startArrow=classic;html=1;rounded=0;entryX=1;entryY=0.5;entryDx=0;entryDy=0;exitX=0;exitY=0.5;exitDx=0;exitDy=0;" parent="1" source="Z9UdBZsw_tjtDqDn9rrF-36" target="Z9UdBZsw_tjtDqDn9rrF-35" edge="1">
          <mxGeometry width="50" height="50" relative="1" as="geometry">
            <mxPoint x="400" y="210" as="sourcePoint" />
            <mxPoint x="450" y="160" as="targetPoint" />
          </mxGeometry>
        </mxCell>
        <mxCell id="Z9UdBZsw_tjtDqDn9rrF-38" style="edgeStyle=orthogonalEdgeStyle;rounded=0;orthogonalLoop=1;jettySize=auto;html=1;startArrow=classic;startFill=1;" parent="1" source="Z9UdBZsw_tjtDqDn9rrF-40" target="Z9UdBZsw_tjtDqDn9rrF-36" edge="1">
          <mxGeometry relative="1" as="geometry" />
        </mxCell>
        <mxCell id="eCH8moJzU2hQu0W35KAI-5" style="edgeStyle=orthogonalEdgeStyle;rounded=0;orthogonalLoop=1;jettySize=auto;html=1;entryX=0;entryY=0.5;entryDx=0;entryDy=0;" parent="1" source="Z9UdBZsw_tjtDqDn9rrF-40" target="eCH8moJzU2hQu0W35KAI-1" edge="1">
          <mxGeometry relative="1" as="geometry" />
        </mxCell>
        <mxCell id="Z9UdBZsw_tjtDqDn9rrF-40" value="SteeringInformationSubscriber" style="rounded=0;whiteSpace=wrap;html=1;" parent="1" vertex="1">
          <mxGeometry x="160" y="360" width="200" height="80" as="geometry" />
        </mxCell>
        <mxCell id="Z9UdBZsw_tjtDqDn9rrF-41" style="edgeStyle=orthogonalEdgeStyle;rounded=0;orthogonalLoop=1;jettySize=auto;html=1;entryX=0.5;entryY=1;entryDx=0;entryDy=0;startArrow=classic;startFill=1;" parent="1" source="Z9UdBZsw_tjtDqDn9rrF-43" target="Z9UdBZsw_tjtDqDn9rrF-36" edge="1">
          <mxGeometry relative="1" as="geometry" />
        </mxCell>
        <mxCell id="eCH8moJzU2hQu0W35KAI-7" style="edgeStyle=orthogonalEdgeStyle;rounded=0;orthogonalLoop=1;jettySize=auto;html=1;exitX=1;exitY=0.5;exitDx=0;exitDy=0;entryX=0;entryY=0.5;entryDx=0;entryDy=0;" parent="1" source="Z9UdBZsw_tjtDqDn9rrF-43" target="eCH8moJzU2hQu0W35KAI-2" edge="1">
          <mxGeometry relative="1" as="geometry" />
        </mxCell>
        <mxCell id="Z9UdBZsw_tjtDqDn9rrF-43" value="WheelInformationPublisher" style="rounded=0;whiteSpace=wrap;html=1;" parent="1" vertex="1">
          <mxGeometry x="160" y="600" width="200" height="80" as="geometry" />
        </mxCell>
        <mxCell id="Z9UdBZsw_tjtDqDn9rrF-46" value="" style="swimlane;startSize=0;" parent="1" vertex="1">
          <mxGeometry x="880" y="200" width="960" height="560" as="geometry" />
        </mxCell>
        <mxCell id="Z9UdBZsw_tjtDqDn9rrF-47" value="&lt;font style=&quot;font-size: 20px;&quot;&gt;HW/&lt;/font&gt;&lt;span style=&quot;font-size: 20px; background-color: transparent; color: light-dark(rgb(0, 0, 0), rgb(255, 255, 255));&quot;&gt;Quemu&lt;/span&gt;" style="text;html=1;align=center;verticalAlign=middle;resizable=0;points=[];autosize=1;strokeColor=none;fillColor=none;" parent="Z9UdBZsw_tjtDqDn9rrF-46" vertex="1">
          <mxGeometry x="40" y="20" width="130" height="40" as="geometry" />
        </mxCell>
        <mxCell id="Z9UdBZsw_tjtDqDn9rrF-16" value="WheelInformationSubscriber" style="rounded=0;whiteSpace=wrap;html=1;direction=east;flipH=1;flipV=0;" parent="Z9UdBZsw_tjtDqDn9rrF-46" vertex="1">
          <mxGeometry x="80" y="400" width="200" height="80" as="geometry" />
        </mxCell>
        <mxCell id="eCH8moJzU2hQu0W35KAI-1" value="SteeringInformation" style="rounded=0;whiteSpace=wrap;html=1;" parent="1" vertex="1">
          <mxGeometry x="560" y="360" width="200" height="80" as="geometry" />
        </mxCell>
        <mxCell id="eCH8moJzU2hQu0W35KAI-3" value="" style="swimlane;startSize=0;" parent="1" vertex="1">
          <mxGeometry x="440" y="200" width="440" height="560" as="geometry" />
        </mxCell>
        <mxCell id="eCH8moJzU2hQu0W35KAI-4" value="&lt;font style=&quot;font-size: 20px;&quot;&gt;Topics&lt;/font&gt;" style="text;html=1;align=center;verticalAlign=middle;resizable=0;points=[];autosize=1;strokeColor=none;fillColor=none;" parent="eCH8moJzU2hQu0W35KAI-3" vertex="1">
          <mxGeometry x="180" y="20" width="80" height="40" as="geometry" />
        </mxCell>
        <mxCell id="eCH8moJzU2hQu0W35KAI-2" value="WheelInformation" style="rounded=0;whiteSpace=wrap;html=1;" parent="eCH8moJzU2hQu0W35KAI-3" vertex="1">
          <mxGeometry x="120" y="400" width="200" height="80" as="geometry" />
        </mxCell>
      </root>
    </mxGraphModel>
  </diagram>
</mxfile>
